<svg width="70" height="70" viewBox="0 0 70 70" fill="none" xmlns="http://www.w3.org/2000/svg">
<rect width="70" height="70" rx="35" fill="black"/>
<path d="M47.7734 25.8737C49.537 28.7002 50.4214 31.9558 50.4214 35.6482C50.4214 40.3069 48.9016 44.3323 45.8694 47.7198C42.834 51.1058 39.0691 52.7962 34.563 52.7962C31.9415 52.7962 29.5938 52.2276 27.4872 51.1243L22.4249 57.4249C26.021 59.6662 30.0683 60.7895 34.563 60.7895C41.2321 60.7895 46.9078 58.2204 51.595 53.0759C56.2782 47.9343 58.625 41.9231 58.625 35.0435C58.625 29.1255 56.7407 23.9088 52.9791 19.3933L47.7734 25.8737ZM23.1616 23.4382C26.1338 20.0222 29.8762 18.3138 34.3828 18.3138C36.9483 18.3138 39.2608 18.849 41.3371 19.8819L46.3888 13.5928C42.6836 11.2872 38.5914 10.1316 34.1118 10.1316C27.6233 10.1316 22.0632 12.7074 17.4401 17.8475C12.8134 22.992 10.5 28.9409 10.5 35.6934C10.5 41.7266 12.3059 47.0028 15.9052 51.5335L21.1641 44.9894C19.5242 42.2466 18.7009 39.1365 18.7009 35.6482C18.7009 30.9258 20.1904 26.8571 23.1616 23.4382Z" fill="white"/>
</svg>
