<svg width="157" height="55" viewBox="0 0 157 55" fill="none" xmlns="http://www.w3.org/2000/svg">
<g clip-path="url(#clip0_47_359)">
<rect width="156.316" height="55" rx="27.5" fill="#15181E"/>
<g clip-path="url(#clip1_47_359)">
<path d="M38.1668 21.1389V18.7129H34.89V38.163H38.3214V29.3085C38.3214 26.9784 38.1668 21.1389 38.1668 21.1389Z" fill="#F0F0F0"/>
<path d="M43.9762 18.3715C41.7412 18.3715 39.8044 19.2948 38.1668 21.139L35.6379 24.0337L38.3213 29.3087C38.3213 26.9785 38.6209 25.2181 39.2199 24.027C40.0502 22.3551 41.52 21.5183 43.6264 21.5183C46.9798 21.5183 48.6563 23.6091 48.6563 27.7893V38.1632H52.0488V27.0321C52.0488 21.2592 49.3579 18.3715 43.9762 18.3715Z" fill="#F0F0F0"/>
<path d="M65.5992 21.3673C68.562 21.3673 70.6033 22.5804 71.7217 25.007H75.4656C74.7101 22.8589 73.5089 21.1841 71.8582 19.9824C70.2061 18.7827 68.2235 18.1823 65.9117 18.1823C62.8938 18.1823 60.3915 19.1555 58.4039 21.102C56.4148 23.0477 55.4186 25.4993 55.4186 28.4565C55.4186 31.3642 56.3971 33.7973 58.344 35.7554C60.2941 37.7143 62.7634 38.6934 65.7556 38.6934C70.5121 38.6934 73.748 36.3562 75.4656 31.6798H71.7217C70.7579 34.2572 68.7703 35.547 65.7556 35.547C63.7793 35.547 62.1401 34.827 60.8411 33.3858C59.5926 32.0212 58.9688 30.3662 58.9688 28.4191C58.9688 26.5229 59.5926 24.8741 60.8411 23.4708C62.0881 22.0682 63.6751 21.3673 65.5992 21.3673Z" fill="#F0F0F0"/>
<path d="M93.5444 24.4512C94.3076 25.6041 94.6903 26.9321 94.6903 28.4383C94.6903 30.3386 94.0326 31.9806 92.7204 33.3623C91.4068 34.7435 89.7775 35.433 87.8274 35.433C86.6929 35.433 85.6769 35.2011 84.7652 34.7511L82.5745 37.3211C84.1307 38.2354 85.8822 38.6936 87.8274 38.6936C90.7135 38.6936 93.1698 37.6456 95.1982 35.5471C97.2249 33.4499 98.2405 30.9978 98.2405 28.1916C98.2405 25.7776 97.4251 23.6497 95.7972 21.8078L93.5444 24.4512ZM82.8933 23.4578C84.1795 22.0644 85.7991 21.3675 87.7494 21.3675C88.8597 21.3675 89.8604 21.5858 90.759 22.0071L92.9452 19.4417C91.3417 18.5013 89.5707 18.0299 87.6322 18.0299C84.8242 18.0299 82.4179 19.0806 80.4172 21.1773C78.415 23.2757 77.4138 25.7023 77.4138 28.4567C77.4138 30.9177 78.1953 33.0699 79.753 34.918L82.0289 32.2486C81.3192 31.1298 80.9628 29.8612 80.9628 28.4383C80.9628 26.512 81.6075 24.8523 82.8933 23.4578Z" fill="#F0F0F0"/>
<path d="M117.7 21.2906C115.646 19.2945 113.266 18.2954 110.562 18.2954C107.702 18.2954 105.284 19.2815 103.31 21.2528C101.334 23.2247 100.346 25.6011 100.346 28.3811C100.346 31.2878 101.34 33.7146 103.328 35.6617C105.317 37.6076 107.806 38.58 110.796 38.58C113.396 38.58 115.737 37.5325 117.818 35.4329L117.914 35.2916C117.914 35.2916 120.785 32.1698 120.749 28.0645C120.713 23.9592 117.7 21.284 117.7 21.284V21.2906ZM115.769 33.3482C114.404 34.7635 112.812 35.4715 110.992 35.4715C108.989 35.4715 107.306 34.7763 105.942 33.3858C104.576 31.9959 103.894 30.3279 103.894 28.3811C103.894 26.4854 104.576 24.8619 105.942 23.509C107.306 22.1571 108.964 21.4804 110.914 21.4804C112.838 21.4804 114.469 22.1884 115.809 23.6043C117.147 25.0196 117.818 26.6748 117.818 28.5711C117.818 30.34 117.133 31.9327 115.769 33.3482Z" fill="#F0F0F0"/>
<path d="M117.7 21.2908L117.817 35.4331V38.1632H121.092V8.96838H117.7V21.2908Z" fill="#F0F0F0"/>
<path d="M140.509 31.744C140.268 32.1861 139.969 32.6138 139.602 33.0276C138.486 34.2938 137.092 35.0204 135.419 35.2065C133.747 35.3932 132.147 35.0495 130.622 34.177L141.696 21.6325C140.218 20.3987 138.784 19.5191 137.397 18.9938C135.268 18.1836 133.215 18.0188 131.232 18.4968C129.253 18.9746 127.516 20.0583 126.025 21.7459C124.162 23.856 123.368 26.3068 123.641 29.1012C123.917 31.8959 125.149 34.2059 127.339 36.0333C129.528 37.8602 132.069 38.6902 134.958 38.5208C137.851 38.3516 140.226 37.2124 142.09 35.1014C143.034 34.0303 143.713 32.9107 144.126 31.744H140.509ZM126.982 27.8648C127.008 26.3714 127.563 25.0118 128.647 23.783C130.78 21.3669 133.555 20.9015 136.972 22.3867L128.335 32.1682C127.407 30.7933 126.954 29.3599 126.982 27.8648Z" fill="#F0F0F0"/>
<path d="M93.5444 24.4511C94.3076 25.604 94.6903 26.932 94.6903 28.4382C94.6903 30.3385 94.0326 31.9805 92.7204 33.3622C91.4068 34.7434 89.7775 35.4329 87.8274 35.4329C86.6929 35.4329 85.6769 35.201 84.7652 34.751L82.5745 37.321C84.1307 38.2352 85.8822 38.6934 87.8274 38.6934C90.7135 38.6934 93.1698 37.6455 95.1982 35.547C97.2249 33.4497 98.2405 30.9977 98.2405 28.1915C98.2405 25.7775 97.4251 23.6496 95.7972 21.8077L93.5444 24.4511ZM82.8933 23.4576C84.1795 22.0642 85.7991 21.3673 87.7494 21.3673C88.8597 21.3673 89.8604 21.5857 90.759 22.007L92.9452 19.4416C91.3417 18.5012 89.5707 18.0298 87.6322 18.0298C84.8242 18.0298 82.4179 19.0805 80.4172 21.1772C78.415 23.2756 77.4138 25.7022 77.4138 28.4566C77.4138 30.9176 78.1953 33.0698 79.753 34.9179L82.0289 32.2485C81.3192 31.1297 80.9628 29.8611 80.9628 28.4382C80.9628 26.5119 81.6075 24.8522 82.8933 23.4576Z" fill="#F0F0F0"/>
<path d="M27.7095 24.062C28.4728 25.215 28.8555 26.543 28.8555 28.0491C28.8555 29.9494 28.1978 31.5914 26.8855 32.9732C25.5719 34.3544 23.9426 35.0439 21.9925 35.0439C20.8581 35.0439 19.8421 34.812 18.9304 34.3619L16.7396 36.932C18.2959 37.8462 20.0474 38.3044 21.9925 38.3044C24.8787 38.3044 27.3349 37.2564 29.3634 35.158C31.3901 33.0607 32.4057 30.6087 32.4057 27.8025C32.4057 25.3885 31.5903 23.2605 29.9624 21.4186L27.7095 24.062ZM17.0585 23.0686C18.3447 21.6752 19.9643 20.9783 21.9146 20.9783C23.0248 20.9783 24.0256 21.1966 24.9241 21.618L27.1103 19.0526C25.5068 18.1121 23.7359 17.6407 21.7973 17.6407C18.9893 17.6407 16.5831 18.6914 14.5824 20.7881C12.5801 22.8866 11.579 25.3132 11.579 28.0676C11.579 30.5285 12.3605 32.6807 13.9181 34.5288L16.194 31.8594C15.4843 30.7406 15.128 29.472 15.128 28.0491C15.128 26.1228 15.7726 24.4632 17.0585 23.0686Z" fill="#F0F0F0"/>
</g>
</g>
<defs>
<clipPath id="clip0_47_359">
<rect width="156.32" height="55" fill="white"/>
</clipPath>
<clipPath id="clip1_47_359">
<rect x="2.89478" y="10.1315" width="149.803" height="32.5658" rx="5" fill="white"/>
</clipPath>
</defs>
</svg>
